#!OML:ASF F:\VICON\USERDATA\INSTALL\rory3\rory3.ASF
:FULLY-SPECIFIED
:DEGREES
685
root -1.89096 29.0792 -6.82555 4.56972 -2.71529 1.25639
lowerback 3.50667 1.10036 -0.804282
upperback 0.151799 1.46684 1.70223
thorax -1.87462 0.746103 2.12402
lowerneck -13.71 2.35416 -8.65547
upperneck 41.9507 6.99541 -0.547336
head 17.6026 1.40807 2.56728
rclavicle 2.5842e-015 1.59028e-015
rhumerus -26.0494 -4.83572 -78.6925
rradius 38.1178
rwrist 17.9999
rhand -21.665 1.89317
rfingers 7.12502
rthumb 4.73221 -28.034
lclavicle 2.5842e-015 1.59028e-015
lhumerus -37.1705 22.109 73.2637
lradius 22.1729
lwrist -12.1747
lhand -12.2357 27.6
lfingers 7.12502
lthumb 13.8298 57.1202
rfemur -8.69251 1.18016 21.7956
rtibia 27.437
rfoot -19.6039 0.454309
rtoes 12.3081
lfemur -21.2303 0.00431328 -22.7164
ltibia 31.4139
lfoot -14.8815 4.29608
ltoes -15.6211
686
root -1.89777 29.076 -6.80335 4.63446 -2.42306 1.16198
lowerback 3.4715 1.0651 -0.71846
upperback 0.112314 1.42488 1.76388
thorax -1.89312 0.725096 2.14168
lowerneck -13.6625 2.34186 -8.75228
upperneck 41.8847 6.96961 -0.478674
head 17.5444 1.39902 2.60778
rclavicle 1.49089e-015 2.3059e-014
rhumerus -26.1214 -4.70754 -78.668
rradius 38.2319
rwrist 18.2085
rhand -21.3854 1.52478
rfingers 7.12502
rthumb 5.00227 -28.3962
lclavicle 1.49089e-015 2.3059e-014
lhumerus -37.3945 22.4289 73.2228
lradius 22.0414
lwrist -11.8359
lhand -12.1495 27.6666
lfingers 7.12502
lthumb 13.9129 57.1812
rfemur -8.59908 1.19559 21.9654
rtibia 27.3459
rfoot -19.7255 0.207081
rtoes 12.2806
lfemur -21.2061 0.366787 -22.7927
ltibia 31.0932
lfoot -14.7739 4.3311
ltoes -15.527
687
root -1.90176 29.0737 -6.78161 4.71685 -2.1251 1.18703
lowerback 3.47952 1.08024 -0.70506
upperback 0.0307646 1.44686 1.77334
thorax -1.98225 0.737179 2.14178
lowerneck -13.6576 2.26099 -8.87222
upperneck 41.8941 6.86545 -0.418462
head 17.5469 1.34802 2.63904
rclavicle -2.39536e-014 -1.11319e-014
rhumerus -26.3377 -4.72638 -78.542
rradius 38.3216
rwrist 18.3762
rhand -21.2892 1.66796
rfingers 7.12502
rthumb 5.09507 -28.2508
lclavicle -2.39536e-014 -1.11319e-014
lhumerus -37.5882 22.6038 73.2468
lradius 21.886
lwrist -11.7688
lhand -12.0529 28.0826
lfingers 7.12502
lthumb 14.006 57.5907
rfemur -8.52585 1.14693 21.9889
rtibia 27.235
rfoot -19.8258 0.0195442
rtoes 12.3975
lfemur -21.2133 0.709474 -22.9918
ltibia 30.7422
lfoot -14.5833 4.17607
ltoes -15.6783
688
root -1.90548 29.0721 -6.75224 4.75258 -1.98673 1.20403
lowerback 3.46225 1.15334 -0.687665
upperback -0.0421681 1.546 1.77566
thorax -2.05138 0.787498 2.12867
lowerneck -13.562 2.22123 -8.91876
upperneck 41.8636 6.82928 -0.460657
head 17.5094 1.3267 2.6185
rclavicle 2.20651e-014 -7.95139e-015
rhumerus -26.6201 -4.70435 -78.4461
rradius 38.389
rwrist 18.3377
rhand -21.3501 2.30556
rfingers 7.12502
rthumb 5.03628 -27.6146
lclavicle 2.20651e-014 -7.95139e-015
lhumerus -37.8566 22.8189 73.1986
lradius 21.7113
lwrist -11.9984
lhand -12.0274 27.8519
lfingers 7.12502
lthumb 14.0306 57.3583
rfemur -8.39432 1.17146 21.9991
rtibia 27.1111
rfoot -19.8866 -0.134589
rtoes 12.1639
lfemur -21.11 1.06502 -23.173
ltibia 30.3572
lfoot -14.3356 4.03501
ltoes -16.1874
689
root -1.90515 29.0725 -6.71166 4.76936 -1.99546 1.15802
lowerback 3.23567 1.26544 -0.602627
upperback 0.0488323 1.69778 1.81441
thorax -1.83605 0.860733 2.11873
lowerneck -13.6897 2.17513 -9.0499
upperneck 41.7793 6.79379 -0.403321
head 17.4881 1.30472 2.66382
rclavicle 2.98177e-015 -2.38542e-015
rhumerus -26.5575 -4.67284 -78.3368
rradius 38.2369
rwrist 18.2307
rhand -21.3263 3.089
rfingers 7.12502
rthumb 5.05929 -26.8306
lclavicle 2.98177e-015 -2.38542e-015
lhumerus -37.8761 23.1801 73.2741
lradius 21.5883
lwrist -12.2103
lhand -11.9357 27.2753
lfingers 7.12502
lthumb 14.1189 56.7756
rfemur -8.19724 1.24496 22.0397
rtibia 26.9746
rfoot -19.9241 -0.156358
rtoes 11.9863
lfemur -20.9147 1.32759 -23.263
ltibia 29.9507
lfoot -14.0474 3.92371
ltoes -16.3987
690
root -1.90293 29.0725 -6.67704 4.81606 -1.87381 1.07964
lowerback 3.06472 1.2603 -0.474741
upperback 0.0987387 1.69435 1.82494
thorax -1.68543 0.856795 2.06235
lowerneck -13.7582 2.21448 -8.97741
upperneck 41.6706 6.83814 -0.41681
head 17.4425 1.33865 2.65204
rclavicle 1.53064e-014 0
rhumerus -26.5172 -4.43455 -78.4312
rradius 38.1559
rwrist 18.2693
rhand -21.2679 3.07658
rfingers 7.12502
rthumb 5.11567 -26.8417
lclavicle 1.53064e-014 0
lhumerus -37.9347 23.408 73.2877
lradius 21.5782
lwrist -12.1666
lhand -11.8377 27.3178
lfingers 7.12502
lthumb 14.2134 56.8114
rfemur -8.04264 1.1537 22.1172
rtibia 26.8438
rfoot -19.9666 -0.113199
rtoes 12.1673
lfemur -20.8029 1.45382 -23.2975
ltibia 29.5579
lfoot -13.5181 3.74502
ltoes -16.0978
691
root -1.90187 29.0729 -6.64802 4.91832 -1.64407 1.12551
lowerback 2.98641 1.29811 -0.405668
upperback 0.0288939 1.7472 1.79117
thorax -1.71218 0.883078 1.9873
lowerneck -13.7368 2.17645 -9.0316
upperneck 41.7039 6.7781 -0.353172
head 17.4533 1.31561 2.68118
rclavicle -7.15625e-015 -7.15625e-015
rhumerus -26.7023 -4.47634 -78.392
rradius 38.1587
rwrist 18.4822
rhand -21.2693 2.45776
rfingers 7.12502
rthumb 5.11437 -27.4605
lclavicle -7.15625e-015 -7.15625e-015
lhumerus -38.1179 23.3793 73.3657
lradius 21.6263
lwrist -12.2125
lhand -11.6447 27.5039
lfingers 7.12502
lthumb 14.3993 56.9844
rfemur -7.9781 0.997502 22.0874
rtibia 26.705
rfoot -19.9967 -0.214814
rtoes 12.2123
lfemur -20.77 1.51017 -23.4467
ltibia 29.1836
lfoot -12.7176 3.42948
ltoes -14.8982
692
root -1.90204 29.0728 -6.61808 4.99907 -1.481 1.24247
lowerback 2.96148 1.28892 -0.529722
upperback -0.0943138 1.73167 1.75608
thorax -1.82666 0.877681 2.02056
lowerneck -13.5922 2.21441 -8.92292
upperneck 41.7401 6.83381 -0.458903
head 17.4453 1.3427 2.62057
rclavicle 1.78906e-015 7.95139e-016
rhumerus -26.913 -4.45648 -78.4329
rradius 38.0024
rwrist 18.4044
rhand -21.343 2.26009
rfingers 7.12502
rthumb 5.04315 -27.6599
lclavicle 1.78906e-015 7.95139e-016
lhumerus -38.4479 23.4369 73.2646
lradius 21.6178
lwrist -12.1799
lhand -11.6513 27.4319
lfingers 7.12502
lthumb 14.393 56.9129
rfemur -7.88141 0.965258 21.9814
rtibia 26.5458
rfoot -20.0647 -0.369707
rtoes 12.1015
lfemur -20.6774 1.65303 -23.6768
ltibia 28.8487
lfoot -11.8272 2.99993
ltoes -13.3377
693
root -1.90169 29.0775 -6.58467 5.02587 -1.35686 1.40341
lowerback 2.88576 1.33882 -0.690252
upperback -0.109199 1.79244 1.7404
thorax -1.80636 0.909503 2.09329
lowerneck -13.5231 2.17934 -8.9905
upperneck 41.6767 6.84006 -0.569657
head 17.3991 1.32658 2.57969
rclavicle 1.19271e-015 1.27222e-014
rhumerus -26.9768 -4.52453 -78.3151
rradius 37.684
rwrist 17.9764
rhand -21.4306 2.97635
rfingers 7.12502
rthumb 4.95859 -26.9456
lclavicle 1.19271e-015 1.27222e-014
lhumerus -38.5552 23.6386 73.2909
lradius 21.5335
lwrist -12.3732
lhand -11.6692 27.2671
lfingers 7.12502
lthumb 14.3758 56.7493
rfemur -7.70716 0.956216 21.8181
rtibia 26.4026
rfoot -20.1574 -0.449788
rtoes 12.3971
lfemur -20.5584 1.75066 -23.9371
ltibia 28.5404
lfoot -10.7528 2.66979
ltoes -12.1872
694
root -1.89888 29.0846 -6.55126 5.07795 -1.18144 1.42643
lowerback 2.81616 1.41156 -0.650955
upperback -0.127193 1.89098 1.74602
thorax -1.78888 0.958421 2.07395
lowerneck -13.508 2.09912 -8.96711
upperneck 41.6141 6.78721 -0.754299
head 17.3799 1.28911 2.48183
rclavicle 1.6201e-014 -1.59028e-015
rhumerus -27.175 -4.65547 -78.1539
rradius 37.5072
rwrist 17.7398
rhand -21.3907 3.52856
rfingers 7.12502
rthumb 4.99708 -26.3925
lclavicle 1.6201e-014 -1.59028e-015
lhumerus -38.64 23.5173 73.5014
lradius 21.6205
lwrist -12.3247
lhand -11.5499 27.0864
lfingers 7.12502
lthumb 14.4907 56.5604
rfemur -7.5546 0.96493 21.8088
rtibia 26.264
rfoot -20.2546 -0.593842
rtoes 12.3605
lfemur -20.5481 1.71607 -24.0403
ltibia 28.2945
lfoot -9.66969 2.76546
ltoes -12.2412
695
root -1.89558 29.087 -6.51988 5.13532 -1.0026 1.4722
lowerback 2.80077 1.4599 -0.649262
upperback -0.209797 1.95654 1.74473
thorax -1.86768 0.992208 2.06788
lowerneck -13.2878 2.08982 -8.82906
upperneck 41.5889 6.75189 -0.874505
head 17.324 1.28861 2.39086
rclavicle -1.77912e-014 -1.19271e-014
rhumerus -27.6058 -4.67859 -78.0272
rradius 37.5877
rwrist 17.6981
rhand -21.1161 3.40892
rfingers 7.12502
rthumb 5.26225 -26.5057
lclavicle -1.77912e-014 -1.19271e-014
lhumerus -38.8111 23.0979 73.7864
lradius 21.8212
lwrist -11.9409
lhand -11.3825 27.2425
lfingers 7.12502
lthumb 14.652 56.7048
rfemur -7.42891 0.965137 21.7732
rtibia 26.1354
rfoot -20.3609 -0.789798
rtoes 12.0399
lfemur -20.4894 1.60085 -24.157
ltibia 28.1197
lfoot -9.0308 3.17098
ltoes -12.607
696
root -1.89347 29.086 -6.49069 5.19562 -0.818195 1.5307
lowerback 2.7226 1.46734 -0.699134
upperback -0.200806 1.96439 1.73443
thorax -1.81625 0.996225 2.08711
lowerneck -13.3357 2.10599 -8.91444
upperneck 41.5627 6.81079 -0.864366
head 17.3155 1.3031 2.42156
rclavicle -4.01545e-014 -7.15625e-015
rhumerus -27.6751 -4.75089 -78.0046
rradius 37.4095
rwrist 17.7548
rhand -21.1585 3.36761
rfingers 7.12502
rthumb 5.22128 -26.5481
lclavicle -4.01545e-014 -7.15625e-015
lhumerus -38.8016 22.8127 74.0672
lradius 21.9992
lwrist -11.5409
lhand -11.5826 27.4358
lfingers 7.12502
lthumb 14.4592 56.912
rfemur -7.32552 1.03143 21.736
rtibia 26.0676
rfoot -20.536 -0.963311
rtoes 12.0252
lfemur -20.381 1.41378 -24.2445
ltibia 28.0223
lfoot -8.80988 3.51248
ltoes -12.1908
697
root -1.89119 29.0812 -6.4644 5.12 -0.564317 1.58834
lowerback 2.81902 1.44575 -0.755199
upperback -0.127951 1.93247 1.70605
thorax -1.79506 0.980001 2.08937
lowerneck -13.5548 2.08213 -8.8875
upperneck 41.5687 6.81246 -0.890594
head 17.379 1.29953 2.41279
rclavicle -7.85199e-015 7.95139e-015
rhumerus -27.5968 -4.98226 -78.0346
rradius 37.0743
rwrist 17.8192
rhand -21.3574 3.67045
rfingers 7.12502
rthumb 5.02931 -26.2499
lclavicle -7.85199e-015 7.95139e-015
lhumerus -38.6986 22.7015 74.2286
lradius 22.1329
lwrist -11.2946
lhand -11.7186 27.2962
lfingers 7.12502
lthumb 14.3282 56.7818
rfemur -7.12342 1.20309 21.7402
rtibia 26.1022
rfoot -20.8241 -1.26195
rtoes 12.299
lfemur -20.1644 1.20788 -24.3039
ltibia 27.9576
lfoot -8.78033 3.57946
ltoes -11.851
698
root -1.88855 29.0753 -6.44045 4.95138 -0.251817 1.68014
lowerback 3.10491 1.43079 -0.84091
upperback -0.139372 1.9098 1.70828
thorax -1.9691 0.970723 2.13336
lowerneck -13.5275 2.04492 -9.02115
upperneck 41.6446 6.78803 -0.840298
head 17.4104 1.27368 2.45626
rclavicle -5.06901e-015 -4.77083e-015
rhumerus -27.8055 -5.26593 -77.9331
rradius 36.8254
rwrist 17.7526
rhand -21.2604 3.91069
rfingers 7.12502
rthumb 5.12292 -26.0074
lclavicle -5.06901e-015 -4.77083e-015
lhumerus -38.7989 22.7896 74.2709
lradius 22.204
lwrist -11.4005
lhand -11.6605 26.9023
lfingers 7.12502
lthumb 14.3841 56.3839
rfemur -6.85758 1.3982 21.72
rtibia 26.2119
rfoot -21.1724 -1.5839
rtoes 12.68
lfemur -19.8657 0.976727 -24.3991
ltibia 27.8915
lfoot -8.86756 3.39202
ltoes -11.8917
699
root -1.88355 29.0696 -6.41406 4.87922 0.0593072 1.77642
lowerback 3.25403 1.41889 -0.902291
upperback -0.185612 1.8925 1.72757
thorax -2.10219 0.964114 2.18416
lowerneck -13.3909 2.07219 -9.06694
upperneck 41.7046 6.8679 -0.904574
head 17.4104 1.29239 2.44674
rclavicle -4.96962e-016 1.66979e-014
rhumerus -27.9974 -5.47408 -77.7703
rradius 37.0467
rwrist 19.1251
rhand -19.629 1.41661
rfingers 7.12502
rthumb 6.69796 -28.4575
lclavicle -4.96962e-016 1.66979e-014
lhumerus -38.9445 22.7571 74.4083
lradius 22.329
lwrist -11.4088
lhand -11.591 26.6979
lfingers 7.12502
lthumb 14.4511 56.1747
rfemur -6.71651 1.41803 21.6645
rtibia 26.3597
rfoot -21.4829 -1.79319
rtoes 12.6916
lfemur -19.6263 0.740253 -24.5074
ltibia 27.7849
lfoot -8.97331 3.1331
ltoes -11.7715
